<svg class="main-svg" xmlns="http://www.w3.org/2000/svg" xmlns:xlink="http://www.w3.org/1999/xlink" width="700" height="500" style="" viewBox="0 0 700 500"><rect x="0" y="0" width="700" height="500" style="fill: rgb(255, 255, 255); fill-opacity: 1;"/><defs id="defs-ef0696"><g class="clips"><clipPath id="clipef0696xyplot" class="plotclip"><rect width="540" height="225"/></clipPath><clipPath class="axesclip" id="clipef0696x"><rect x="80" y="0" width="540" height="500"/></clipPath><clipPath class="axesclip" id="clipef0696y"><rect x="0" y="100" width="700" height="225"/></clipPath><clipPath class="axesclip" id="clipef0696xy"><rect x="80" y="100" width="540" height="225"/></clipPath></g><g class="gradients"/><g class="patterns"/></defs><g class="bglayer"><rect class="bg" x="80" y="100" width="540" height="225" style="fill: rgb(229, 236, 246); fill-opacity: 1; stroke-width: 0;"/></g><g class="layer-below"><g class="imagelayer"/><g class="shapelayer"/></g><g class="cartesianlayer"><g class="subplot xy"><g class="layer-subplot"><g class="shapelayer"/><g class="imagelayer"/></g><g class="gridlayer"><g class="x"><path class="xgrid crisp" transform="translate(181.25,0)" d="M0,100v225" style="stroke: rgb(255, 255, 255); stroke-opacity: 1; stroke-width: 1px;"/><path class="xgrid crisp" transform="translate(316.25,0)" d="M0,100v225" style="stroke: rgb(255, 255, 255); stroke-opacity: 1; stroke-width: 1px;"/><path class="xgrid crisp" transform="translate(451.25,0)" d="M0,100v225" style="stroke: rgb(255, 255, 255); stroke-opacity: 1; stroke-width: 1px;"/><path class="xgrid crisp" transform="translate(586.25,0)" d="M0,100v225" style="stroke: rgb(255, 255, 255); stroke-opacity: 1; stroke-width: 1px;"/></g><g class="y"><path class="ygrid crisp" transform="translate(0,313.99)" d="M80,0h540" style="stroke: rgb(255, 255, 255); stroke-opacity: 1; stroke-width: 1px;"/><path class="ygrid crisp" transform="translate(0,273.44)" d="M80,0h540" style="stroke: rgb(255, 255, 255); stroke-opacity: 1; stroke-width: 1px;"/><path class="ygrid crisp" transform="translate(0,232.9)" d="M80,0h540" style="stroke: rgb(255, 255, 255); stroke-opacity: 1; stroke-width: 1px;"/><path class="ygrid crisp" transform="translate(0,192.35)" d="M80,0h540" style="stroke: rgb(255, 255, 255); stroke-opacity: 1; stroke-width: 1px;"/><path class="ygrid crisp" transform="translate(0,151.8)" d="M80,0h540" style="stroke: rgb(255, 255, 255); stroke-opacity: 1; stroke-width: 1px;"/><path class="ygrid crisp" transform="translate(0,111.25)" d="M80,0h540" style="stroke: rgb(255, 255, 255); stroke-opacity: 1; stroke-width: 1px;"/></g></g><g class="zerolinelayer"/><path class="xlines-below"/><path class="ylines-below"/><g class="overlines-below"/><g class="xaxislayer-below"/><g class="yaxislayer-below"/><g class="overaxes-below"/><g class="plot" transform="translate(80,100)" clip-path="url(#clipef0696xyplot)"><g class="boxlayer mlayer"><g class="trace boxes" style="opacity: 1;"><path class="box" d="M5.74,48.87H16.76M5.74,69.93H16.76V47.87H5.74ZM11.25,69.93V127.75M11.25,47.87V47.87" style="vector-effect: non-scaling-stroke; stroke-width: 2px; stroke: rgb(61, 153, 112); stroke-opacity: 1; fill: rgb(61, 153, 112); fill-opacity: 0.5; opacity: 1;"/><path class="box" d="M28.24,48.87H39.26M28.24,49.13H39.26V47.87H28.24ZM33.75,49.13V92.35M33.75,47.87V47.87" style="vector-effect: non-scaling-stroke; stroke-width: 2px; stroke: rgb(255, 65, 54); stroke-opacity: 1; fill: rgb(255, 65, 54); fill-opacity: 0.5; opacity: 1;"/><path class="box" d="M50.74,73.09H61.76M50.74,92.31H61.76V72.09H50.74ZM56.25,92.31V92.35M56.25,72.09V48.35" style="vector-effect: non-scaling-stroke; stroke-width: 2px; stroke: rgb(61, 153, 112); stroke-opacity: 1; fill: rgb(61, 153, 112); fill-opacity: 0.5; opacity: 1;"/><path class="box" d="M73.24,18.56H84.26M73.24,51.84H84.26V17.56H73.24ZM78.75,51.84V92.29M78.75,17.56V11.25" style="vector-effect: non-scaling-stroke; stroke-width: 2px; stroke: rgb(61, 153, 112); stroke-opacity: 1; fill: rgb(61, 153, 112); fill-opacity: 0.5; opacity: 1;"/><path class="box" d="M95.74,42.96H106.76M95.74,43.96H106.76V17.85H95.74ZM101.25,43.96V128.05M101.25,17.85V17.85" style="vector-effect: non-scaling-stroke; stroke-width: 2px; stroke: rgb(255, 65, 54); stroke-opacity: 1; fill: rgb(255, 65, 54); fill-opacity: 0.5; opacity: 1;"/><path class="box" d="M118.24,91.78H129.26M118.24,92.78H129.26V43.8H118.24ZM123.75,92.78V132.9M123.75,43.8V43.8" style="vector-effect: non-scaling-stroke; stroke-width: 2px; stroke: rgb(255, 65, 54); stroke-opacity: 1; fill: rgb(255, 65, 54); fill-opacity: 0.5; opacity: 1;"/><path class="box" d="M140.74,129.76H151.76M140.74,130.76H151.76V92.78H140.74ZM146.25,130.76V132.45M146.25,92.78V92.77" style="vector-effect: non-scaling-stroke; stroke-width: 2px; stroke: rgb(255, 65, 54); stroke-opacity: 1; fill: rgb(255, 65, 54); fill-opacity: 0.5; opacity: 1;"/><path class="box" d="M163.24,172.16H174.26M163.24,173.16H174.26V92.78H163.24ZM168.75,173.16V173.16M168.75,92.78V91.98" style="vector-effect: non-scaling-stroke; stroke-width: 2px; stroke: rgb(255, 65, 54); stroke-opacity: 1; fill: rgb(255, 65, 54); fill-opacity: 0.5; opacity: 1;"/><path class="box" d="M185.74,140.8H196.76M185.74,140.81H196.76V140.8H185.74ZM191.25,140.81V213.75M191.25,140.8V140.8" style="vector-effect: non-scaling-stroke; stroke-width: 2px; stroke: rgb(61, 153, 112); stroke-opacity: 1; fill: rgb(61, 153, 112); fill-opacity: 0.5; opacity: 1;"/><path class="box" d="M208.24,93.91H219.26M208.24,140.83H219.26V92.91H208.24ZM213.75,140.83V173.43M213.75,92.91V92.05" style="vector-effect: non-scaling-stroke; stroke-width: 2px; stroke: rgb(61, 153, 112); stroke-opacity: 1; fill: rgb(61, 153, 112); fill-opacity: 0.5; opacity: 1;"/><path class="box" d="M230.74,101.78H241.76M230.74,139.84H241.76V100.78H230.74ZM236.25,139.84V155.2M236.25,100.78V92.92" style="vector-effect: non-scaling-stroke; stroke-width: 2px; stroke: rgb(61, 153, 112); stroke-opacity: 1; fill: rgb(61, 153, 112); fill-opacity: 0.5; opacity: 1;"/><path class="box" d="M253.24,95.12H264.26M253.24,96.12H264.26V94.37H253.24ZM258.75,96.12V155.2M258.75,94.37V94.37" style="vector-effect: non-scaling-stroke; stroke-width: 2px; stroke: rgb(61, 153, 112); stroke-opacity: 1; fill: rgb(61, 153, 112); fill-opacity: 0.5; opacity: 1;"/><path class="box" d="M275.74,141.18H286.76M275.74,142.18H286.76V124.79H275.74ZM281.25,142.18V155.2M281.25,124.79V94.58" style="vector-effect: non-scaling-stroke; stroke-width: 2px; stroke: rgb(255, 65, 54); stroke-opacity: 1; fill: rgb(255, 65, 54); fill-opacity: 0.5; opacity: 1;"/><path class="box" d="M298.24,142.18H309.26M298.24,142.18H309.26V142.14H298.24ZM303.75,142.18V193.72M303.75,142.14V136.91" style="vector-effect: non-scaling-stroke; stroke-width: 2px; stroke: rgb(255, 65, 54); stroke-opacity: 1; fill: rgb(255, 65, 54); fill-opacity: 0.5; opacity: 1;"/><path class="box" d="M320.74,150.54H331.76M320.74,167.91H331.76V149.54H320.74ZM326.25,167.91V193.72M326.25,149.54V142.18" style="vector-effect: non-scaling-stroke; stroke-width: 2px; stroke: rgb(61, 153, 112); stroke-opacity: 1; fill: rgb(61, 153, 112); fill-opacity: 0.5; opacity: 1;"/><path class="box" d="M343.24,192.72H354.26M343.24,193.72H354.26V142.65H343.24ZM348.75,193.72V193.72M348.75,142.65V142.18" style="vector-effect: non-scaling-stroke; stroke-width: 2px; stroke: rgb(255, 65, 54); stroke-opacity: 1; fill: rgb(255, 65, 54); fill-opacity: 0.5; opacity: 1;"/><path class="box" d="M365.74,143.56H376.76M365.74,153.36H376.76V142.56H365.74ZM371.25,153.36V197.61M371.25,142.56V142.18" style="vector-effect: non-scaling-stroke; stroke-width: 2px; stroke: rgb(61, 153, 112); stroke-opacity: 1; fill: rgb(61, 153, 112); fill-opacity: 0.5; opacity: 1;"/><path class="box" d="M388.24,134.66H399.26M388.24,143.23H399.26V133.66H388.24ZM393.75,143.23V197.61M393.75,133.66V133.66" style="vector-effect: non-scaling-stroke; stroke-width: 2px; stroke: rgb(61, 153, 112); stroke-opacity: 1; fill: rgb(61, 153, 112); fill-opacity: 0.5; opacity: 1;"/><path class="box" d="M410.74,107.43H421.76M410.74,133.77H421.76V106.43H410.74ZM416.25,133.77V185.97M416.25,106.43V102.95" style="vector-effect: non-scaling-stroke; stroke-width: 2px; stroke: rgb(61, 153, 112); stroke-opacity: 1; fill: rgb(61, 153, 112); fill-opacity: 0.5; opacity: 1;"/><path class="box" d="M433.24,172.39H444.26M433.24,173.39H444.26V123.77H433.24ZM438.75,173.39V173.44M438.75,123.77V107.11" style="vector-effect: non-scaling-stroke; stroke-width: 2px; stroke: rgb(255, 65, 54); stroke-opacity: 1; fill: rgb(255, 65, 54); fill-opacity: 0.5; opacity: 1;"/><path class="box" d="M455.74,118.79H466.76M455.74,143.29H466.76V117.79H455.74ZM461.25,143.29V183.17M461.25,117.79V113.57" style="vector-effect: non-scaling-stroke; stroke-width: 2px; stroke: rgb(61, 153, 112); stroke-opacity: 1; fill: rgb(61, 153, 112); fill-opacity: 0.5; opacity: 1;"/><path class="box" d="M478.24,133.91H489.26M478.24,175.11H489.26V132.91H478.24ZM483.75,175.11V193.72M483.75,132.91V116.22" style="vector-effect: non-scaling-stroke; stroke-width: 2px; stroke: rgb(61, 153, 112); stroke-opacity: 1; fill: rgb(61, 153, 112); fill-opacity: 0.5; opacity: 1;"/><path class="box" d="M500.74,163.84H511.76M500.74,164.84H511.76V132.92H500.74ZM506.25,164.84V177.54M506.25,132.92V132.9" style="vector-effect: non-scaling-stroke; stroke-width: 2px; stroke: rgb(255, 65, 54); stroke-opacity: 1; fill: rgb(255, 65, 54); fill-opacity: 0.5; opacity: 1;"/><path class="box" d="M523.24,180.33H534.26M523.24,181.33H534.26V164.83H523.24ZM528.75,181.33V181.35M528.75,164.83V132.98" style="vector-effect: non-scaling-stroke; stroke-width: 2px; stroke: rgb(255, 65, 54); stroke-opacity: 1; fill: rgb(255, 65, 54); fill-opacity: 0.5; opacity: 1;"/></g></g></g><g class="overplot"/><path class="xlines-above crisp" d="M0,0" style="fill: none;"/><path class="ylines-above crisp" d="M0,0" style="fill: none;"/><g class="overlines-above"/><g class="xaxislayer-above"><g class="xtick"><text text-anchor="middle" x="0" y="338" transform="translate(181.25,0)" style="font-family: 'Open Sans', verdana, arial, sans-serif; font-size: 12px; fill: rgb(42, 63, 95); fill-opacity: 1; white-space: pre; opacity: 1;"><tspan class="line" dy="0em" x="0" y="338">18:00</tspan><tspan class="line" dy="1.3em" x="0" y="338">Nov 27, 2021</tspan></text></g><g class="xtick"><text text-anchor="middle" x="0" y="338" style="font-family: 'Open Sans', verdana, arial, sans-serif; font-size: 12px; fill: rgb(42, 63, 95); fill-opacity: 1; white-space: pre; opacity: 1;" transform="translate(316.25,0)"><tspan class="line" dy="0em" x="0" y="338">00:00</tspan><tspan class="line" dy="1.3em" x="0" y="338">Nov 28, 2021</tspan></text></g><g class="xtick"><text text-anchor="middle" x="0" y="338" style="font-family: 'Open Sans', verdana, arial, sans-serif; font-size: 12px; fill: rgb(42, 63, 95); fill-opacity: 1; white-space: pre; opacity: 1;" transform="translate(451.25,0)">06:00</text></g><g class="xtick"><text text-anchor="middle" x="0" y="338" style="font-family: 'Open Sans', verdana, arial, sans-serif; font-size: 12px; fill: rgb(42, 63, 95); fill-opacity: 1; white-space: pre; opacity: 1;" transform="translate(586.25,0)">12:00</text></g></g><g class="yaxislayer-above"><g class="ytick"><text text-anchor="end" x="79" y="4.199999999999999" transform="translate(0,313.99)" style="font-family: 'Open Sans', verdana, arial, sans-serif; font-size: 12px; fill: rgb(42, 63, 95); fill-opacity: 1; white-space: pre; opacity: 1;">230k</text></g><g class="ytick"><text text-anchor="end" x="79" y="4.199999999999999" style="font-family: 'Open Sans', verdana, arial, sans-serif; font-size: 12px; fill: rgb(42, 63, 95); fill-opacity: 1; white-space: pre; opacity: 1;" transform="translate(0,273.44)">231k</text></g><g class="ytick"><text text-anchor="end" x="79" y="4.199999999999999" style="font-family: 'Open Sans', verdana, arial, sans-serif; font-size: 12px; fill: rgb(42, 63, 95); fill-opacity: 1; white-space: pre; opacity: 1;" transform="translate(0,232.9)">232k</text></g><g class="ytick"><text text-anchor="end" x="79" y="4.199999999999999" style="font-family: 'Open Sans', verdana, arial, sans-serif; font-size: 12px; fill: rgb(42, 63, 95); fill-opacity: 1; white-space: pre; opacity: 1;" transform="translate(0,192.35)">233k</text></g><g class="ytick"><text text-anchor="end" x="79" y="4.199999999999999" style="font-family: 'Open Sans', verdana, arial, sans-serif; font-size: 12px; fill: rgb(42, 63, 95); fill-opacity: 1; white-space: pre; opacity: 1;" transform="translate(0,151.8)">234k</text></g><g class="ytick"><text text-anchor="end" x="79" y="4.199999999999999" style="font-family: 'Open Sans', verdana, arial, sans-serif; font-size: 12px; fill: rgb(42, 63, 95); fill-opacity: 1; white-space: pre; opacity: 1;" transform="translate(0,111.25)">235k</text></g></g><g class="overaxes-above"/></g></g><g class="polarlayer"/><g class="smithlayer"/><g class="ternarylayer"/><g class="geolayer"/><g class="funnelarealayer"/><g class="pielayer"/><g class="iciclelayer"/><g class="treemaplayer"/><g class="sunburstlayer"/><g class="glimages"/><defs id="topdefs-ef0696"><g class="clips"/><clipPath id="rangesliderx-ef0696"><rect x="0" y="0" width="540" height="48"/></clipPath></defs><g class="layer-above"><g class="imagelayer"/><g class="shapelayer"/></g><g class="infolayer"><g class="g-gtitle"><text class="gtitle" x="35" y="50" text-anchor="start" dy="0em" style="font-family: 'Open Sans', verdana, arial, sans-serif; font-size: 17px; fill: rgb(42, 63, 95); opacity: 1; font-weight: normal; white-space: pre;">Bitcoin last 24h price</text></g><g class="rangeslider-container" pointer-events="all" transform="translate(80,372)"><rect class="rangeslider-bg" x="0" y="0" shape-rendering="crispEdges" width="540" height="48" transform="" fill="#E5ECF6" stroke="#444" stroke-width="0"/><g class="rangeslider-rangeplot xy" clip-path="url(#rangesliderx-ef0696)"><g class="layer-subplot"><g class="shapelayer"/><g class="imagelayer"/></g><g class="gridlayer"><g class="x"/><g class="y"/></g><g class="zerolinelayer"/><path class="xlines-below"/><path class="ylines-below"/><g class="overlines-below"/><g class="xaxislayer-below"/><g class="yaxislayer-below"/><g class="overaxes-below"/><g class="plot"><g class="boxlayer mlayer rangeplot"><g class="trace boxes" style="opacity: 1;"><path class="box" d="M5.74,11.21H16.76M5.74,14.92H16.76V10.21H5.74ZM11.25,14.92V27.25M11.25,10.21V10.21" style="vector-effect: non-scaling-stroke; stroke-width: 2px; stroke: rgb(61, 153, 112); stroke-opacity: 1; fill: rgb(61, 153, 112); fill-opacity: 0.5; opacity: 1;"/><path class="box" d="M28.24,10.48H39.26M28.24,10.48H39.26V10.21H28.24ZM33.75,10.48V19.7M33.75,10.21V10.21" style="vector-effect: non-scaling-stroke; stroke-width: 2px; stroke: rgb(255, 65, 54); stroke-opacity: 1; fill: rgb(255, 65, 54); fill-opacity: 0.5; opacity: 1;"/><path class="box" d="M50.74,16.380000000000003H61.76M50.74,19.69H61.76V15.38H50.74ZM56.25,19.69V19.7M56.25,15.38V10.32" style="vector-effect: non-scaling-stroke; stroke-width: 2px; stroke: rgb(61, 153, 112); stroke-opacity: 1; fill: rgb(61, 153, 112); fill-opacity: 0.5; opacity: 1;"/><path class="box" d="M73.24,4.75H84.26M73.24,11.06H84.26V3.75H73.24ZM78.75,11.06V19.69M78.75,3.75V2.4" style="vector-effect: non-scaling-stroke; stroke-width: 2px; stroke: rgb(61, 153, 112); stroke-opacity: 1; fill: rgb(61, 153, 112); fill-opacity: 0.5; opacity: 1;"/><path class="box" d="M95.74,8.38H106.76M95.74,9.38H106.76V3.81H95.74ZM101.25,9.38V27.32M101.25,3.81V3.81" style="vector-effect: non-scaling-stroke; stroke-width: 2px; stroke: rgb(255, 65, 54); stroke-opacity: 1; fill: rgb(255, 65, 54); fill-opacity: 0.5; opacity: 1;"/><path class="box" d="M118.24,18.79H129.26M118.24,19.79H129.26V9.34H118.24ZM123.75,19.79V28.35M123.75,9.34V9.34" style="vector-effect: non-scaling-stroke; stroke-width: 2px; stroke: rgb(255, 65, 54); stroke-opacity: 1; fill: rgb(255, 65, 54); fill-opacity: 0.5; opacity: 1;"/><path class="box" d="M140.74,26.89H151.76M140.74,27.89H151.76V19.79H140.74ZM146.25,27.89V28.26M146.25,19.79V19.79" style="vector-effect: non-scaling-stroke; stroke-width: 2px; stroke: rgb(255, 65, 54); stroke-opacity: 1; fill: rgb(255, 65, 54); fill-opacity: 0.5; opacity: 1;"/><path class="box" d="M163.24,35.94H174.26M163.24,36.94H174.26V19.79H163.24ZM168.75,36.94V36.94M168.75,19.79V19.62" style="vector-effect: non-scaling-stroke; stroke-width: 2px; stroke: rgb(255, 65, 54); stroke-opacity: 1; fill: rgb(255, 65, 54); fill-opacity: 0.5; opacity: 1;"/><path class="box" d="M185.74,30.04H196.76M185.74,30.04H196.76V30.04H185.74ZM191.25,30.04V45.6M191.25,30.04V30.04" style="vector-effect: non-scaling-stroke; stroke-width: 2px; stroke: rgb(61, 153, 112); stroke-opacity: 1; fill: rgb(61, 153, 112); fill-opacity: 0.5; opacity: 1;"/><path class="box" d="M208.24,20.82H219.26M208.24,30.04H219.26V19.82H208.24ZM213.75,30.04V37M213.75,19.82V19.64" style="vector-effect: non-scaling-stroke; stroke-width: 2px; stroke: rgb(61, 153, 112); stroke-opacity: 1; fill: rgb(61, 153, 112); fill-opacity: 0.5; opacity: 1;"/><path class="box" d="M230.74,22.5H241.76M230.74,29.83H241.76V21.5H230.74ZM236.25,29.83V33.11M236.25,21.5V19.82" style="vector-effect: non-scaling-stroke; stroke-width: 2px; stroke: rgb(61, 153, 112); stroke-opacity: 1; fill: rgb(61, 153, 112); fill-opacity: 0.5; opacity: 1;"/><path class="box" d="M253.24,20.13H264.26M253.24,20.51H264.26V20.13H253.24ZM258.75,20.51V33.11M258.75,20.13V20.13" style="vector-effect: non-scaling-stroke; stroke-width: 2px; stroke: rgb(61, 153, 112); stroke-opacity: 1; fill: rgb(61, 153, 112); fill-opacity: 0.5; opacity: 1;"/><path class="box" d="M275.74,29.33H286.76M275.74,30.33H286.76V26.62H275.74ZM281.25,30.33V33.11M281.25,26.62V20.18" style="vector-effect: non-scaling-stroke; stroke-width: 2px; stroke: rgb(255, 65, 54); stroke-opacity: 1; fill: rgb(255, 65, 54); fill-opacity: 0.5; opacity: 1;"/><path class="box" d="M298.24,30.33H309.26M298.24,30.33H309.26V30.32H298.24ZM303.75,30.33V41.33M303.75,30.32V29.21" style="vector-effect: non-scaling-stroke; stroke-width: 2px; stroke: rgb(255, 65, 54); stroke-opacity: 1; fill: rgb(255, 65, 54); fill-opacity: 0.5; opacity: 1;"/><path class="box" d="M320.74,32.9H331.76M320.74,35.82H331.76V31.9H320.74ZM326.25,35.82V41.33M326.25,31.9V30.33" style="vector-effect: non-scaling-stroke; stroke-width: 2px; stroke: rgb(61, 153, 112); stroke-opacity: 1; fill: rgb(61, 153, 112); fill-opacity: 0.5; opacity: 1;"/><path class="box" d="M343.24,40.33H354.26M343.24,41.33H354.26V30.43H343.24ZM348.75,41.33V41.33M348.75,30.43V30.33" style="vector-effect: non-scaling-stroke; stroke-width: 2px; stroke: rgb(255, 65, 54); stroke-opacity: 1; fill: rgb(255, 65, 54); fill-opacity: 0.5; opacity: 1;"/><path class="box" d="M365.74,31.41H376.76M365.74,32.72H376.76V30.41H365.74ZM371.25,32.72V42.16M371.25,30.41V30.33" style="vector-effect: non-scaling-stroke; stroke-width: 2px; stroke: rgb(61, 153, 112); stroke-opacity: 1; fill: rgb(61, 153, 112); fill-opacity: 0.5; opacity: 1;"/><path class="box" d="M388.24,29.52H399.26M388.24,30.56H399.26V28.52H388.24ZM393.75,30.56V42.16M393.75,28.52V28.52" style="vector-effect: non-scaling-stroke; stroke-width: 2px; stroke: rgb(61, 153, 112); stroke-opacity: 1; fill: rgb(61, 153, 112); fill-opacity: 0.5; opacity: 1;"/><path class="box" d="M410.74,23.71H421.76M410.74,28.54H421.76V22.71H410.74ZM416.25,28.54V39.67M416.25,22.71V21.96" style="vector-effect: non-scaling-stroke; stroke-width: 2px; stroke: rgb(61, 153, 112); stroke-opacity: 1; fill: rgb(61, 153, 112); fill-opacity: 0.5; opacity: 1;"/><path class="box" d="M433.24,35.99H444.26M433.24,36.99H444.26V26.41H433.24ZM438.75,36.99V37M438.75,26.41V22.85" style="vector-effect: non-scaling-stroke; stroke-width: 2px; stroke: rgb(255, 65, 54); stroke-opacity: 1; fill: rgb(255, 65, 54); fill-opacity: 0.5; opacity: 1;"/><path class="box" d="M455.74,26.13H466.76M455.74,30.57H466.76V25.13H455.74ZM461.25,30.57V39.08M461.25,25.13V24.23" style="vector-effect: non-scaling-stroke; stroke-width: 2px; stroke: rgb(61, 153, 112); stroke-opacity: 1; fill: rgb(61, 153, 112); fill-opacity: 0.5; opacity: 1;"/><path class="box" d="M478.24,29.35H489.26M478.24,37.36H489.26V28.35H478.24ZM483.75,37.36V41.33M483.75,28.35V24.79" style="vector-effect: non-scaling-stroke; stroke-width: 2px; stroke: rgb(61, 153, 112); stroke-opacity: 1; fill: rgb(61, 153, 112); fill-opacity: 0.5; opacity: 1;"/><path class="box" d="M500.74,34.17H511.76M500.74,35.17H511.76V28.36H500.74ZM506.25,35.17V37.87M506.25,28.36V28.35" style="vector-effect: non-scaling-stroke; stroke-width: 2px; stroke: rgb(255, 65, 54); stroke-opacity: 1; fill: rgb(255, 65, 54); fill-opacity: 0.5; opacity: 1;"/><path class="box" d="M523.24,37.68H534.26M523.24,38.68H534.26V35.16H523.24ZM528.75,38.68V38.69M528.75,35.16V28.37" style="vector-effect: non-scaling-stroke; stroke-width: 2px; stroke: rgb(255, 65, 54); stroke-opacity: 1; fill: rgb(255, 65, 54); fill-opacity: 0.5; opacity: 1;"/></g></g></g><g class="overplot"/><path class="xlines-above crisp" style="fill: none;"/><path class="ylines-above crisp" style="fill: none;"/><g class="overlines-above"/><g class="xaxislayer-above"/><g class="yaxislayer-above"/><g class="overaxes-above"/></g><rect class="rangeslider-mask-min" x="0" y="0" shape-rendering="crispEdges" height="48" width="0" style="fill: rgb(0, 0, 0); fill-opacity: 0.4;"/><rect class="rangeslider-mask-max" y="0" shape-rendering="crispEdges" height="48" x="540" width="0" style="fill: rgb(0, 0, 0); fill-opacity: 0.4;"/><g class="rangeslider-grabber-min" transform="translate(-2.5,0.5)"><rect class="rangeslider-handle-min" x="0" width="4" rx="1" fill="#fff" stroke="#444" stroke-width="1" shape-rendering="crispEdges" y="12" height="24"/><rect class="rangeslider-grabarea-min" width="10" x="0" y="0" fill="transparent" height="48"/></g><g class="rangeslider-grabber-max" transform="translate(538.5,0.5)"><rect class="rangeslider-handle-max" x="0" width="4" rx="1" fill="#fff" stroke="#444" stroke-width="1" shape-rendering="crispEdges" y="12" height="24"/><rect class="rangeslider-grabarea-max" width="10" x="0" y="0" fill="transparent" height="48"/></g></g><g class="g-ytitle"><text class="ytitle" transform="rotate(-90,24.200000000000003,212.5)" x="24.200000000000003" y="212.5" text-anchor="middle" style="font-family: 'Open Sans', verdana, arial, sans-serif; font-size: 14px; fill: rgb(42, 63, 95); opacity: 1; font-weight: normal; white-space: pre;">Price [PLN]</text></g><g class="g-xtitle"><text class="xtitle" x="350" y="451" text-anchor="middle" style="font-family: 'Open Sans', verdana, arial, sans-serif; font-size: 14px; fill: rgb(42, 63, 95); opacity: 1; font-weight: normal; white-space: pre;">Time</text></g></g></svg>